<?xml version="1.0" standalone="no"?>
<!DOCTYPE svg PUBLIC "-//W3C//DTD SVG 20010904//EN"
 "http://www.w3.org/TR/2001/REC-SVG-20010904/DTD/svg10.dtd">
<svg version="1.0" xmlns="http://www.w3.org/2000/svg"
 width="452.000000pt" height="304.000000pt" viewBox="0 0 452.000000 304.000000"
 preserveAspectRatio="xMidYMid meet">

<g transform="translate(0.000000,304.000000) scale(0.100000,-0.100000)"
fill="#000000" stroke="none">
<path d="M1632 2960 c-18 -11 -41 -34 -52 -52 -19 -32 -20 -52 -20 -628 0
-576 1 -596 20 -628 11 -18 34 -41 52 -52 32 -19 52 -20 628 -20 576 0 596 1
628 20 18 11 41 34 52 52 19 32 20 52 20 628 0 576 -1 596 -20 628 -11 18 -34
41 -52 52 -32 19 -52 20 -628 20 -576 0 -596 -1 -628 -20z m1221 -51 c14 -6
30 -22 36 -36 16 -35 15 -1156 -1 -1186 -25 -47 -10 -46 -628 -46 -618 0 -603
-1 -628 46 -16 30 -17 1151 -1 1187 6 13 21 29 33 34 30 15 1157 16 1189 1z"/>
<path d="M2040 2513 c1 -19 108 -404 114 -410 12 -12 20 11 55 154 18 76 36
141 40 145 3 4 24 -62 46 -147 21 -85 44 -155 49 -155 9 0 117 385 116 413 0
4 -8 7 -18 7 -15 0 -24 -25 -51 -137 -41 -169 -46 -179 -59 -128 -71 273 -74
283 -90 258 -4 -7 -23 -75 -42 -152 -19 -78 -38 -141 -41 -141 -3 0 -23 68
-44 150 -32 126 -41 150 -56 150 -11 0 -19 -3 -19 -7z"/>
<path d="M132 1480 c-18 -11 -41 -34 -52 -52 -19 -32 -20 -52 -20 -628 0 -576
1 -596 20 -628 11 -18 34 -41 52 -52 32 -19 52 -20 628 -20 576 0 596 1 628
20 18 11 41 34 52 52 19 32 20 52 20 628 0 576 -1 596 -20 628 -11 18 -34 41
-52 52 -32 19 -52 20 -628 20 -576 0 -596 -1 -628 -20z m1221 -51 c14 -6 30
-22 36 -36 16 -35 15 -1156 -1 -1186 -25 -47 -10 -46 -628 -46 -618 0 -603 -1
-628 46 -16 30 -17 1151 -1 1187 6 13 21 29 33 34 30 15 1157 16 1189 1z"/>
<path d="M735 1028 c-12 -33 -115 -389 -115 -398 0 -6 9 -10 19 -10 15 0 22
12 31 50 l12 50 68 0 68 0 12 -50 c9 -39 16 -50 32 -50 24 0 25 -4 -46 235
-50 166 -69 207 -81 173z m44 -179 c12 -41 21 -78 21 -82 0 -4 -23 -7 -51 -7
-48 0 -51 1 -45 23 3 12 13 52 23 89 10 37 20 64 24 60 4 -4 16 -41 28 -83z"/>
<path d="M1632 1480 c-18 -11 -41 -34 -52 -52 -19 -32 -20 -52 -20 -628 0
-576 1 -596 20 -628 11 -18 34 -41 52 -52 32 -19 52 -20 628 -20 576 0 596 1
628 20 18 11 41 34 52 52 19 32 20 52 20 628 0 576 -1 596 -20 628 -11 18 -34
41 -52 52 -32 19 -52 20 -628 20 -576 0 -596 -1 -628 -20z m1221 -51 c14 -6
30 -22 36 -36 16 -35 15 -1156 -1 -1186 -25 -47 -10 -46 -628 -46 -618 0 -603
-1 -628 46 -16 30 -17 1151 -1 1187 6 13 21 29 33 34 30 15 1157 16 1189 1z"/>
<path d="M2188 1034 c-36 -19 -48 -43 -48 -94 0 -61 14 -79 94 -115 83 -37 97
-52 98 -96 2 -47 -42 -83 -91 -75 -39 6 -71 37 -71 67 0 12 -7 19 -20 19 -36
0 -21 -66 24 -102 14 -12 39 -18 79 -18 51 0 62 4 88 29 24 25 29 38 29 79 0
65 -18 86 -111 131 -71 35 -74 37 -77 74 -4 52 19 77 70 77 43 0 78 -27 78
-60 0 -13 7 -20 20 -20 40 0 16 81 -31 106 -36 18 -96 17 -131 -2z"/>
<path d="M3132 1480 c-18 -11 -41 -34 -52 -52 -19 -32 -20 -52 -20 -628 0
-576 1 -596 20 -628 11 -18 34 -41 52 -52 32 -19 52 -20 628 -20 576 0 596 1
628 20 18 11 41 34 52 52 19 32 20 52 20 628 0 576 -1 596 -20 628 -11 18 -34
41 -52 52 -32 19 -52 20 -628 20 -576 0 -596 -1 -628 -20z m1221 -51 c14 -6
30 -22 36 -36 16 -35 15 -1156 -1 -1186 -25 -47 -10 -46 -628 -46 -618 0 -603
-1 -628 46 -16 30 -17 1151 -1 1187 6 13 21 29 33 34 30 15 1157 16 1189 1z"/>
<path d="M3640 830 l0 -210 69 0 c148 0 161 18 161 215 l0 147 -29 29 c-28 28
-34 29 -115 29 l-86 0 0 -210z m164 159 c26 -20 26 -21 26 -159 0 -164 -4
-170 -102 -170 l-58 0 0 168 c0 93 3 172 7 175 15 16 101 7 127 -14z"/>
</g>
</svg>
