<?xml version="1.0" encoding="UTF-8" standalone="no"?>
<!DOCTYPE svg PUBLIC "-//W3C//DTD SVG 1.1//EN" "http://www.w3.org/Graphics/SVG/1.1/DTD/svg11.dtd">
<svg xmlns="http://www.w3.org/2000/svg" xmlns:xlink="http://www.w3.org/1999/xlink" version="1.1" width="552.0424pt" height="228.0627pt" viewBox="0 0 552.0424 228.0627">
<g enable-background="new">
<clipPath id="cp0">
<path transform="matrix(1,0,0,-1,-171.6903,456.4448)" d="M 0 .00001206994 L 959.76 .00001206994 L 959.76 540 L 0 540 Z "/>
</clipPath>
<g clip-path="url(#cp0)">
<path transform="matrix(1,0,0,-1,-171.6903,456.4448)" d="M 0 540 L 959.76 540 L 959.76 .00001206994 L 0 .00001206994 Z " fill="#ffffff"/>
</g>
<clipPath id="cp1">
<path transform="matrix(1,0,0,-1,-171.6903,456.4448)" d="M 0 0 L 960 0 L 960 540 L 0 540 Z "/>
</clipPath>
<g clip-path="url(#cp1)">
<path transform="matrix(1,0,0,-1,-171.6903,456.4448)" d="M 0 540 L 960 540 L 960 .0000140816 L 0 .0000140816 Z " fill="#ffffff"/>
<path transform="matrix(1,0,0,-1,-171.6903,456.4448)" d="M 187.68 360.48 C 187.68 366.8423 192.8377 372 199.2 372 C 205.5623 372 210.72 366.8423 210.72 360.48 C 210.72 354.1177 205.5623 348.96 199.2 348.96 C 192.8377 348.96 187.68 354.1177 187.68 360.48 Z " fill="#4472c4"/>
<path transform="matrix(.00007874016,0,0,.00007874016,15.989685,84.44479)" stroke-width="12700" stroke-linecap="butt" stroke-miterlimit="8" stroke-linejoin="miter" fill="none" stroke="#2f528f" d="M 0 146304 C 0 65502.53 65502.53 0 146304 0 C 227105.5 0 292608 65502.53 292608 146304 C 292608 227105.5 227105.5 292608 146304 292608 C 65502.53 292608 0 227105.5 0 146304 Z "/>
<path transform="matrix(1,0,0,-1,-171.6903,456.4448)" d="M 313.92 360.48 C 313.92 366.8423 319.0777 372 325.44 372 C 331.8023 372 336.96 366.8423 336.96 360.48 C 336.96 354.1177 331.8023 348.96 325.44 348.96 C 319.0777 348.96 313.92 354.1177 313.92 360.48 Z " fill="#4472c4"/>
<path transform="matrix(.00007874016,0,0,.00007874016,142.2297,84.44479)" stroke-width="12700" stroke-linecap="butt" stroke-miterlimit="8" stroke-linejoin="miter" fill="none" stroke="#2f528f" d="M 0 146304 C 0 65502.53 65502.53 0 146304 0 C 227105.5 0 292608 65502.53 292608 146304 C 292608 227105.5 227105.5 292608 146304 292608 C 65502.53 292608 0 227105.5 0 146304 Z "/>
<path transform="matrix(1,0,0,-1,-171.6903,456.4448)" d="M 440.16 360.48 C 440.16 366.8423 445.3177 372 451.68 372 C 458.0423 372 463.2 366.8423 463.2 360.48 C 463.2 354.1177 458.0423 348.96 451.68 348.96 C 445.3177 348.96 440.16 354.1177 440.16 360.48 Z " fill="#4472c4"/>
<path transform="matrix(.00007874016,0,0,.00007874016,268.4697,84.44479)" stroke-width="12700" stroke-linecap="butt" stroke-miterlimit="8" stroke-linejoin="miter" fill="none" stroke="#2f528f" d="M 0 146304 C 0 65502.53 65502.53 0 146304 0 C 227105.5 0 292608 65502.53 292608 146304 C 292608 227105.5 227105.5 292608 146304 292608 C 65502.53 292608 0 227105.5 0 146304 Z "/>
<path transform="matrix(1,0,0,-1,-171.6903,456.4448)" d="M 566.4 360.48 C 566.4 366.8423 571.5577 372 577.92 372 C 584.2823 372 589.44 366.8423 589.44 360.48 C 589.44 354.1177 584.2823 348.96 577.92 348.96 C 571.5577 348.96 566.4 354.1177 566.4 360.48 Z " fill="#4472c4"/>
<path transform="matrix(.00007874016,0,0,.00007874016,394.70973,84.44479)" stroke-width="12700" stroke-linecap="butt" stroke-miterlimit="8" stroke-linejoin="miter" fill="none" stroke="#2f528f" d="M 0 146304 C 0 65502.53 65502.53 0 146304 0 C 227105.5 0 292608 65502.53 292608 146304 C 292608 227105.5 227105.5 292608 146304 292608 C 65502.53 292608 0 227105.5 0 146304 Z "/>
<path transform="matrix(1,0,0,-1,-171.6903,456.4448)" d="M 692.64 360.48 C 692.64 366.8423 697.7977 372 704.16 372 C 710.5223 372 715.68 366.8423 715.68 360.48 C 715.68 354.1177 710.5223 348.96 704.16 348.96 C 697.7977 348.96 692.64 354.1177 692.64 360.48 Z " fill="#4472c4"/>
<path transform="matrix(.00007874016,0,0,.00007874016,520.9497,84.44479)" stroke-width="12700" stroke-linecap="butt" stroke-miterlimit="8" stroke-linejoin="miter" fill="none" stroke="#2f528f" d="M 0 146304 C 0 65502.53 65502.53 0 146304 0 C 227105.5 0 292608 65502.53 292608 146304 C 292608 227105.5 227105.5 292608 146304 292608 C 65502.53 292608 0 227105.5 0 146304 Z "/>
<path transform="matrix(1,0,0,-1,-171.6903,456.4448)" d="M 253.68 369.12 L 270.96 369.12 L 270.96 351.84 L 253.68 351.84 Z " fill="#f4b183"/>
<path transform="matrix(.00007874016,0,0,.00007874016,81.989688,87.3248)" stroke-width="12700" stroke-linecap="butt" stroke-miterlimit="8" stroke-linejoin="miter" fill="none" stroke="#2f528f" d="M 0 0 L 219456 0 L 219456 219456 L 0 219456 Z "/>
<path transform="matrix(1,0,0,-1,-171.6903,456.4448)" d="M 379.92 369.12 L 397.2 369.12 L 397.2 351.84 L 379.92 351.84 Z " fill="#f4b183"/>
<path transform="matrix(.00007874016,0,0,.00007874016,208.2297,87.3248)" stroke-width="12700" stroke-linecap="butt" stroke-miterlimit="8" stroke-linejoin="miter" fill="none" stroke="#2f528f" d="M 0 0 L 219456 0 L 219456 219456 L 0 219456 Z "/>
<path transform="matrix(1,0,0,-1,-171.6903,456.4448)" d="M 506.16 369.12 L 523.44 369.12 L 523.44 351.84 L 506.16 351.84 Z " fill="#f4b183"/>
<path transform="matrix(.00007874016,0,0,.00007874016,334.4697,87.3248)" stroke-width="12700" stroke-linecap="butt" stroke-miterlimit="8" stroke-linejoin="miter" fill="none" stroke="#2f528f" d="M 0 0 L 219456 0 L 219456 219456 L 0 219456 Z "/>
<path transform="matrix(1,0,0,-1,-171.6903,456.4448)" d="M 632.4 369.12 L 649.68 369.12 L 649.68 351.84 L 632.4 351.84 Z " fill="#f4b183"/>
<path transform="matrix(.00007874016,0,0,.00007874016,460.70973,87.3248)" stroke-width="12700" stroke-linecap="butt" stroke-miterlimit="8" stroke-linejoin="miter" fill="none" stroke="#2f528f" d="M 0 0 L 219456 0 L 219456 219456 L 0 219456 Z "/>
<path transform="matrix(.00007874016,0,0,.00007874016,27.50969,95.96478)" stroke-width="6350" stroke-linecap="butt" stroke-miterlimit="8" stroke-linejoin="miter" fill="none" stroke="#4472c4" d="M 0 0 L 691896 1 "/>
<path transform="matrix(.00007874016,0,0,.00007874016,99.269687,95.96478)" stroke-width="6350" stroke-linecap="butt" stroke-miterlimit="8" stroke-linejoin="miter" fill="none" stroke="#4472c4" d="M 0 0 L 838200 1 "/>
<path transform="matrix(.00007874016,0,0,.00007874016,165.26969,95.96478)" stroke-width="6350" stroke-linecap="butt" stroke-miterlimit="8" stroke-linejoin="miter" fill="none" stroke="#4472c4" d="M 0 0 L 545592 1 "/>
<path transform="matrix(.00007874016,0,0,.00007874016,225.5097,95.96478)" stroke-width="6350" stroke-linecap="butt" stroke-miterlimit="8" stroke-linejoin="miter" fill="none" stroke="#4472c4" d="M 0 0 L 545592 1 "/>
<path transform="matrix(.00007874016,0,0,.00007874016,291.5097,95.96478)" stroke-width="6350" stroke-linecap="butt" stroke-miterlimit="8" stroke-linejoin="miter" fill="none" stroke="#4472c4" d="M 0 0 L 545592 1 "/>
<path transform="matrix(.00007874016,0,0,.00007874016,351.7497,95.96478)" stroke-width="6350" stroke-linecap="butt" stroke-miterlimit="8" stroke-linejoin="miter" fill="none" stroke="#4472c4" d="M 0 0 L 545592 1 "/>
<path transform="matrix(.00007874016,0,0,.00007874016,417.7497,95.96478)" stroke-width="6350" stroke-linecap="butt" stroke-miterlimit="8" stroke-linejoin="miter" fill="none" stroke="#4472c4" d="M 0 0 L 545592 1 "/>
<path transform="matrix(.00007874016,0,0,.00007874016,477.9897,95.96478)" stroke-width="6350" stroke-linecap="butt" stroke-miterlimit="8" stroke-linejoin="miter" fill="none" stroke="#4472c4" d="M 0 0 L 545592 1 "/>
<path transform="matrix(1,0,0,-1,-171.6903,456.4448)" d="M 253.68 409.92 L 270.96 409.92 L 270.96 392.64 L 253.68 392.64 Z " fill="#f4b183"/>
<path transform="matrix(.00007874016,0,0,.00007874016,81.989688,46.52478)" stroke-width="12700" stroke-linecap="butt" stroke-miterlimit="8" stroke-linejoin="miter" fill="none" stroke="#2f528f" d="M 0 0 L 219456 0 L 219456 219456 L 0 219456 Z "/>
<path transform="matrix(1,0,0,-1,-171.6903,456.4448)" d="M 253.68 450.24 L 270.96 450.24 L 270.96 432.96 L 253.68 432.96 Z " fill="#f4b183"/>
<path transform="matrix(.00007874016,0,0,.00007874016,81.989688,6.2048037)" stroke-width="12700" stroke-linecap="butt" stroke-miterlimit="8" stroke-linejoin="miter" fill="none" stroke="#2f528f" d="M 0 0 L 219456 0 L 219456 219456 L 0 219456 Z "/>
<path transform="matrix(1,0,0,-1,-171.6903,456.4448)" d="M 379.92 409.92 L 397.2 409.92 L 397.2 392.64 L 379.92 392.64 Z " fill="#f4b183"/>
<path transform="matrix(.00007874016,0,0,.00007874016,208.2297,46.52478)" stroke-width="12700" stroke-linecap="butt" stroke-miterlimit="8" stroke-linejoin="miter" fill="none" stroke="#2f528f" d="M 0 0 L 219456 0 L 219456 219456 L 0 219456 Z "/>
<path transform="matrix(1,0,0,-1,-171.6903,456.4448)" d="M 632.4 408.72 L 649.68 408.72 L 649.68 391.44 L 632.4 391.44 Z " fill="#f4b183"/>
<path transform="matrix(.00007874016,0,0,.00007874016,460.70973,47.724794)" stroke-width="12700" stroke-linecap="butt" stroke-miterlimit="8" stroke-linejoin="miter" fill="none" stroke="#2f528f" d="M 0 0 L 219456 0 L 219456 219456 L 0 219456 Z "/>
<path transform="matrix(1,0,0,-1,-171.6903,456.4448)" d="M 632.4 448.32 L 649.68 448.32 L 649.68 431.04 L 632.4 431.04 Z " fill="#f4b183"/>
<path transform="matrix(.00007874016,0,0,.00007874016,460.70973,8.124786)" stroke-width="12700" stroke-linecap="butt" stroke-miterlimit="8" stroke-linejoin="miter" fill="none" stroke="#2f528f" d="M 0 0 L 219456 0 L 219456 219456 L 0 219456 Z "/>
<path transform="matrix(.00007874016,0,0,-.00007874016,27.50969,95.96478)" stroke-width="6350" stroke-linecap="butt" stroke-miterlimit="8" stroke-linejoin="miter" fill="none" stroke="#4472c4" d="M 0 0 L 691896 518160 "/>
<path transform="matrix(-.00007874016,-0,0,.00007874016,81.989688,14.844788)" stroke-width="6350" stroke-linecap="butt" stroke-miterlimit="8" stroke-linejoin="miter" fill="none" stroke="#4472c4" d="M 0 0 L 691896 1030224 "/>
<path transform="matrix(.00007874016,0,0,.00007874016,99.269687,55.164796)" stroke-width="6350" stroke-linecap="butt" stroke-miterlimit="8" stroke-linejoin="miter" fill="none" stroke="#4472c4" d="M 0 0 L 691896 518160 "/>
<path transform="matrix(.00007874016,0,0,.00007874016,99.269687,14.844788)" stroke-width="6350" stroke-linecap="butt" stroke-miterlimit="8" stroke-linejoin="miter" fill="none" stroke="#4472c4" d="M 0 0 L 691896 1030224 "/>
<path transform="matrix(.00007874016,0,0,-.00007874016,153.7497,95.96478)" stroke-width="6350" stroke-linecap="butt" stroke-miterlimit="8" stroke-linejoin="miter" fill="none" stroke="#4472c4" d="M 0 0 L 691896 518160 "/>
<path transform="matrix(.00007874016,0,0,.00007874016,225.5097,55.164796)" stroke-width="6350" stroke-linecap="butt" stroke-miterlimit="8" stroke-linejoin="miter" fill="none" stroke="#4472c4" d="M 0 0 L 691896 518160 "/>
<path transform="matrix(.00007874016,0,0,-.00007874016,408.3899,95.96478)" stroke-width="6350" stroke-linecap="butt" stroke-miterlimit="8" stroke-linejoin="miter" fill="none" stroke="#4472c4" d="M 0 0 L 664462 502920 "/>
<path transform="matrix(.00007874016,0,0,.00007874016,477.9897,56.364809)" stroke-width="6350" stroke-linecap="butt" stroke-miterlimit="8" stroke-linejoin="miter" fill="none" stroke="#4472c4" d="M 0 0 L 691896 502920 "/>
<path transform="matrix(-.00007874016,-0,0,.00007874016,460.70973,16.764801)" stroke-width="6350" stroke-linecap="butt" stroke-miterlimit="8" stroke-linejoin="miter" fill="none" stroke="#4472c4" d="M 0 0 L 678179 1005840 "/>
<path transform="matrix(.00007874016,0,0,.00007874016,477.9897,16.764801)" stroke-width="6350" stroke-linecap="butt" stroke-miterlimit="8" stroke-linejoin="miter" fill="none" stroke="#4472c4" d="M 0 0 L 691896 1005840 "/>
<path transform="matrix(1,0,0,-1,-171.6903,456.4448)" d="M 187.68 249.12 C 187.68 255.4823 192.8377 260.64 199.2 260.64 C 205.5623 260.64 210.72 255.4823 210.72 249.12 C 210.72 242.7577 205.5623 237.6 199.2 237.6 C 192.8377 237.6 187.68 242.7577 187.68 249.12 Z " fill="#4472c4"/>
<path transform="matrix(.00007874016,0,0,.00007874016,15.989685,195.80478)" stroke-width="12700" stroke-linecap="butt" stroke-miterlimit="8" stroke-linejoin="miter" fill="none" stroke="#2f528f" d="M 0 146304 C 0 65502.53 65502.53 0 146304 0 C 227105.5 0 292608 65502.53 292608 146304 C 292608 227105.5 227105.5 292608 146304 292608 C 65502.53 292608 0 227105.5 0 146304 Z "/>
<path transform="matrix(1,0,0,-1,-171.6903,456.4448)" d="M 313.92 249.12 C 313.92 255.4823 319.0777 260.64 325.44 260.64 C 331.8023 260.64 336.96 255.4823 336.96 249.12 C 336.96 242.7577 331.8023 237.6 325.44 237.6 C 319.0777 237.6 313.92 242.7577 313.92 249.12 Z " fill="#4472c4"/>
<path transform="matrix(.00007874016,0,0,.00007874016,142.2297,195.80478)" stroke-width="12700" stroke-linecap="butt" stroke-miterlimit="8" stroke-linejoin="miter" fill="none" stroke="#2f528f" d="M 0 146304 C 0 65502.53 65502.53 0 146304 0 C 227105.5 0 292608 65502.53 292608 146304 C 292608 227105.5 227105.5 292608 146304 292608 C 65502.53 292608 0 227105.5 0 146304 Z "/>
<path transform="matrix(1,0,0,-1,-171.6903,456.4448)" d="M 440.16 249.12 C 440.16 255.4823 445.3177 260.64 451.68 260.64 C 458.0423 260.64 463.2 255.4823 463.2 249.12 C 463.2 242.7577 458.0423 237.6 451.68 237.6 C 445.3177 237.6 440.16 242.7577 440.16 249.12 Z " fill="#4472c4"/>
<path transform="matrix(.00007874016,0,0,.00007874016,268.4697,195.80478)" stroke-width="12700" stroke-linecap="butt" stroke-miterlimit="8" stroke-linejoin="miter" fill="none" stroke="#2f528f" d="M 0 146304 C 0 65502.53 65502.53 0 146304 0 C 227105.5 0 292608 65502.53 292608 146304 C 292608 227105.5 227105.5 292608 146304 292608 C 65502.53 292608 0 227105.5 0 146304 Z "/>
<path transform="matrix(1,0,0,-1,-171.6903,456.4448)" d="M 566.4 249.12 C 566.4 255.4823 571.5577 260.64 577.92 260.64 C 584.2823 260.64 589.44 255.4823 589.44 249.12 C 589.44 242.7577 584.2823 237.6 577.92 237.6 C 571.5577 237.6 566.4 242.7577 566.4 249.12 Z " fill="#4472c4"/>
<path transform="matrix(.00007874016,0,0,.00007874016,394.70973,195.80478)" stroke-width="12700" stroke-linecap="butt" stroke-miterlimit="8" stroke-linejoin="miter" fill="none" stroke="#2f528f" d="M 0 146304 C 0 65502.53 65502.53 0 146304 0 C 227105.5 0 292608 65502.53 292608 146304 C 292608 227105.5 227105.5 292608 146304 292608 C 65502.53 292608 0 227105.5 0 146304 Z "/>
<path transform="matrix(1,0,0,-1,-171.6903,456.4448)" d="M 692.64 249.12 C 692.64 255.4823 697.7977 260.64 704.16 260.64 C 710.5223 260.64 715.68 255.4823 715.68 249.12 C 715.68 242.7577 710.5223 237.6 704.16 237.6 C 697.7977 237.6 692.64 242.7577 692.64 249.12 Z " fill="#4472c4"/>
<path transform="matrix(.00007874016,0,0,.00007874016,520.9497,195.80478)" stroke-width="12700" stroke-linecap="butt" stroke-miterlimit="8" stroke-linejoin="miter" fill="none" stroke="#2f528f" d="M 0 146304 C 0 65502.53 65502.53 0 146304 0 C 227105.5 0 292608 65502.53 292608 146304 C 292608 227105.5 227105.5 292608 146304 292608 C 65502.53 292608 0 227105.5 0 146304 Z "/>
<path transform="matrix(1,0,0,-1,-171.6903,456.4448)" d="M 253.68 257.76 L 270.96 257.76 L 270.96 240.48 L 253.68 240.48 Z " fill="#f4b183"/>
<path transform="matrix(.00007874016,0,0,.00007874016,81.989688,198.68479)" stroke-width="12700" stroke-linecap="butt" stroke-miterlimit="8" stroke-linejoin="miter" fill="none" stroke="#2f528f" d="M 0 0 L 219456 0 L 219456 219456 L 0 219456 Z "/>
<path transform="matrix(1,0,0,-1,-171.6903,456.4448)" d="M 379.92 257.76 L 397.2 257.76 L 397.2 240.48 L 379.92 240.48 Z " fill="#f4b183"/>
<path transform="matrix(.00007874016,0,0,.00007874016,208.2297,198.68479)" stroke-width="12700" stroke-linecap="butt" stroke-miterlimit="8" stroke-linejoin="miter" fill="none" stroke="#2f528f" d="M 0 0 L 219456 0 L 219456 219456 L 0 219456 Z "/>
<path transform="matrix(1,0,0,-1,-171.6903,456.4448)" d="M 506.16 257.76 L 523.44 257.76 L 523.44 240.48 L 506.16 240.48 Z " fill="#f4b183"/>
<path transform="matrix(.00007874016,0,0,.00007874016,334.4697,198.68479)" stroke-width="12700" stroke-linecap="butt" stroke-miterlimit="8" stroke-linejoin="miter" fill="none" stroke="#2f528f" d="M 0 0 L 219456 0 L 219456 219456 L 0 219456 Z "/>
<path transform="matrix(1,0,0,-1,-171.6903,456.4448)" d="M 632.4 257.76 L 649.68 257.76 L 649.68 240.48 L 632.4 240.48 Z " fill="#f4b183"/>
<path transform="matrix(.00007874016,0,0,.00007874016,460.70973,198.68479)" stroke-width="12700" stroke-linecap="butt" stroke-miterlimit="8" stroke-linejoin="miter" fill="none" stroke="#2f528f" d="M 0 0 L 219456 0 L 219456 219456 L 0 219456 Z "/>
<path transform="matrix(.00007874016,0,0,.00007874016,27.50969,207.3248)" stroke-width="6350" stroke-linecap="butt" stroke-miterlimit="8" stroke-linejoin="miter" fill="none" stroke="#4472c4" d="M 0 0 L 691896 1 "/>
<path transform="matrix(.00007874016,0,0,.00007874016,99.269687,207.3248)" stroke-width="6350" stroke-linecap="butt" stroke-miterlimit="8" stroke-linejoin="miter" fill="none" stroke="#4472c4" d="M 0 0 L 838200 1 "/>
<path transform="matrix(.00007874016,0,0,.00007874016,165.26969,207.3248)" stroke-width="6350" stroke-linecap="butt" stroke-miterlimit="8" stroke-linejoin="miter" fill="none" stroke="#4472c4" d="M 0 0 L 545592 1 "/>
<path transform="matrix(.00007874016,0,0,.00007874016,225.5097,207.3248)" stroke-width="6350" stroke-linecap="butt" stroke-miterlimit="8" stroke-linejoin="miter" fill="none" stroke="#4472c4" d="M 0 0 L 545592 1 "/>
<path transform="matrix(.00007874016,0,0,.00007874016,291.5097,207.3248)" stroke-width="6350" stroke-linecap="butt" stroke-miterlimit="8" stroke-linejoin="miter" fill="none" stroke="#4472c4" d="M 0 0 L 545592 1 "/>
<path transform="matrix(.00007874016,0,0,.00007874016,351.7497,207.3248)" stroke-width="6350" stroke-linecap="butt" stroke-miterlimit="8" stroke-linejoin="miter" fill="none" stroke="#4472c4" d="M 0 0 L 545592 1 "/>
<path transform="matrix(.00007874016,0,0,.00007874016,417.7497,207.3248)" stroke-width="6350" stroke-linecap="butt" stroke-miterlimit="8" stroke-linejoin="miter" fill="none" stroke="#4472c4" d="M 0 0 L 545592 1 "/>
<path transform="matrix(.00007874016,0,0,.00007874016,477.9897,207.3248)" stroke-width="6350" stroke-linecap="butt" stroke-miterlimit="8" stroke-linejoin="miter" fill="none" stroke="#4472c4" d="M 0 0 L 545592 1 "/>
<path transform="matrix(1,0,0,-1,-171.6903,456.4448)" d="M 326.88 304.32 L 339.78 304.32 L 339.78 324 L 365.58 324 L 365.58 304.32 L 378.48 304.32 L 352.68 284.64 Z " fill="#dae3f3"/>
<path transform="matrix(.00007874016,0,0,.00007874016,155.1897,132.4448)" stroke-width="12700" stroke-linecap="butt" stroke-miterlimit="8" stroke-linejoin="miter" fill="none" stroke="#2f528f" d="M 0 249936.3 L 163830 249936.3 L 163830 0 L 491490 0 L 491490 249936.3 L 655320 249936.3 L 327660 499872 Z "/>
<path transform="matrix(1,0,0,-1,-171.6903,456.4448)" d="M 512.16 304.8 L 525.06 304.8 L 525.06 324.48 L 550.86 324.48 L 550.86 304.8 L 563.76 304.8 L 537.96 285.12 Z " fill="#dae3f3"/>
<path transform="matrix(.00007874016,0,0,.00007874016,340.46968,131.96479)" stroke-width="12700" stroke-linecap="butt" stroke-miterlimit="8" stroke-linejoin="miter" fill="none" stroke="#2f528f" d="M 0 249936.3 L 163830 249936.3 L 163830 0 L 491490 0 L 491490 249936.3 L 655320 249936.3 L 327660 499872 Z "/>
</g>
</g>
</svg>
